<?xml version="1.0" encoding="UTF-8"?>
<svg id="Layer_2" data-name="Layer 2" xmlns="http://www.w3.org/2000/svg" viewBox="0 0 23.97 19.45">
  <g id="Layer_1-2" data-name="Layer 1">
    <path class="cls-1" d="M16.39,0H7.58C3.4,0,0,3.4,0,7.58H0c0,4.19,3.4,7.58,7.58,7.58h1.93l1.24,2.14,1.24,2.14,1.24-2.14,1.24-2.14h1.93c4.19,0,7.58-3.4,7.58-7.58h0c0-4.19-3.4-7.58-7.58-7.58Zm4.11,7.58c0,2.27-1.84,4.11-4.11,4.11h-2.94l-.73,1.27-.73,1.27-.73-1.27-.73-1.27h-2.94c-2.27,0-4.11-1.84-4.11-4.11h0c0-2.27,1.84-4.11,4.11-4.11h8.81c2.27,0,4.11,1.84,4.11,4.11h0Z"/>
    <g>
      <circle class="cls-1" cx="7.63" cy="7.28" r="1.25"/>
      <circle class="cls-1" cx="16.35" cy="7.28" r="1.25"/>
    </g>
  </g>
</svg>